<?xml version="1.0" encoding="UTF-8" standalone="no"?>
<!-- Created with Inkscape (http://www.inkscape.org/) -->

<svg
   width="7680"
   height="4320"
   viewBox="0 0 7680 4320"
   version="1.1"
   id="svg5"
   inkscape:version="1.2.2 (b0a8486541, 2022-12-01)"
   sodipodi:docname="rocky.svg"
   xmlns:inkscape="http://www.inkscape.org/namespaces/inkscape"
   xmlns:sodipodi="http://sodipodi.sourceforge.net/DTD/sodipodi-0.dtd"
   xmlns="http://www.w3.org/2000/svg"
   xmlns:svg="http://www.w3.org/2000/svg">
  <sodipodi:namedview
     id="namedview7"
     pagecolor="#ffffff"
     bordercolor="#000000"
     borderopacity="0.25"
     inkscape:showpageshadow="2"
     inkscape:pageopacity="0.0"
     inkscape:pagecheckerboard="0"
     inkscape:deskcolor="#d1d1d1"
     inkscape:document-units="px"
     showgrid="false"
     inkscape:zoom="0.34453125"
     inkscape:cx="4050.4308"
     inkscape:cy="2221.8594"
     inkscape:window-width="3800"
     inkscape:window-height="2083"
     inkscape:window-x="40"
     inkscape:window-y="400"
     inkscape:window-maximized="1"
     inkscape:current-layer="layer3" />
  <defs
     id="defs2" />
  <g
     inkscape:label="bg-layer"
     inkscape:groupmode="layer"
     id="layer1"
     style="display:inline;fill:#000000;stroke:#000000"
     sodipodi:insensitive="true">
    <rect
       style="fill:#000000;stroke:#000000;stroke-width:15.412"
       id="rect234"
       width="10331.888"
       height="6878.7856"
       x="-1490.0624"
       y="-968.04279" />
  </g>
  <g
     inkscape:groupmode="layer"
     id="layer3"
     inkscape:label="lower corner">
    <path
       sodipodi:type="star"
       style="fill:#501400;stroke:#9c6000;stroke-width:15.412"
       id="path1311"
       inkscape:flatsided="true"
       sodipodi:sides="6"
       sodipodi:cx="6950.9629"
       sodipodi:cy="2719.4534"
       sodipodi:r1="252.97876"
       sodipodi:r2="219.08603"
       sodipodi:arg1="0.35102369"
       sodipodi:arg2="0.87462246"
       inkscape:rounded="0.11"
       inkscape:randomized="0.106"
       d="m 7179.9999,2781.0151 c -14.1241,25.1156 -138.3573,178.8754 -165.4767,185.2233 -27.1194,6.3478 -220.0759,-81.2066 -237.7763,-103.3846 -17.7003,-22.1779 -80.5548,-212.8743 -68.5243,-237.4165 12.0305,-24.5423 190.4133,-128.5581 219.1626,-132.897 28.7493,-4.3389 218.2446,28.9269 237.7763,49.753 19.5317,20.8261 28.9625,213.6062 14.8384,238.7218 z"
       inkscape:transform-center-x="4.2254362"
       inkscape:transform-center-y="9.9072386"
       transform="translate(-2405.5166,1503.3236)" />
    <path
       sodipodi:type="star"
       style="fill:#501400;stroke:#9c6000;stroke-width:15.412"
       id="path1313"
       inkscape:flatsided="true"
       sodipodi:sides="6"
       sodipodi:cx="7366.1465"
       sodipodi:cy="2938.9492"
       sodipodi:r1="284.95517"
       sodipodi:r2="246.77843"
       sodipodi:arg1="1.0157819"
       sodipodi:arg2="1.5393807"
       inkscape:rounded="0.11"
       inkscape:randomized="0.106"
       d="m 7513.8362,3190.8076 c -26.5447,16.2313 -263.8645,13.0498 -291.9036,-0.1712 -28.0392,-13.2209 -157.7346,-201.0766 -157.9665,-232.9808 -0.2319,-31.9042 151.2814,-222.4335 176.6632,-241.045 25.3818,-18.6115 203.3627,-14.1989 231.4931,0.1712 28.1304,14.3701 171.9484,165.8853 177.976,197.507 6.0276,31.6217 -109.7175,260.2876 -136.2622,276.5188 z"
       inkscape:transform-center-x="7.399313"
       inkscape:transform-center-y="14.086326"
       transform="translate(163.07406,149.77366)" />
    <path
       sodipodi:type="star"
       style="fill:#501400;stroke:#9c6000;stroke-width:15.412"
       id="path1315"
       inkscape:flatsided="true"
       sodipodi:sides="6"
       sodipodi:cx="6846.3208"
       sodipodi:cy="2978.7019"
       sodipodi:r1="303.88763"
       sodipodi:r2="263.17441"
       sodipodi:arg1="0.91608941"
       sodipodi:arg2="1.4396882"
       inkscape:rounded="0.11"
       inkscape:randomized="0.106"
       d="m 7018.8866,3202.1516 c -27.0898,21.8874 -283.1031,38.043 -315.9967,27.7187 -32.8936,-10.3242 -133.4419,-153.9164 -136.3418,-185.4855 -2.9,-31.569 70.155,-261.6713 99.3123,-278.2816 29.1572,-16.6103 285.7856,-67.7829 317.1249,-54.8204 31.3393,12.9626 127.8443,217.8727 136.3418,249.9097 8.4975,32.037 -73.3507,219.0717 -100.4405,240.9591 z"
       inkscape:transform-center-x="3.1174293"
       inkscape:transform-center-y="-7.5689815"
       transform="translate(204.12637,284.58939)" />
    <path
       sodipodi:type="star"
       style="fill:#501400;stroke:#9c6000;stroke-width:15.412"
       id="path1317"
       inkscape:flatsided="true"
       sodipodi:sides="6"
       sodipodi:cx="1236.3431"
       sodipodi:cy="3763.4988"
       sodipodi:r1="482.3349"
       sodipodi:r2="417.71426"
       sodipodi:arg1="0.95980227"
       sodipodi:arg2="1.483401"
       inkscape:rounded="0.11"
       inkscape:randomized="0.106"
       d="m 1561.9222,4173.3603 c -41.7442,28.0051 -472.1383,101.5045 -522.1231,78.1881 -49.98468,-23.3163 -304.11693,-438.105 -307.37477,-491.9862 -3.25784,-53.8813 179.86012,-372.9343 228.42436,-400.2483 48.56421,-27.3139 456.80461,-80.7644 501.35081,-52.7624 44.5462,28.002 199.831,350.8185 205.1215,401.0535 5.2905,50.2349 -63.6547,437.7502 -105.3988,465.7553 z"
       inkscape:transform-center-x="36.348173"
       inkscape:transform-center-y="-21.098413"
       transform="translate(134.12008,145.18811)" />
    <path
       sodipodi:type="star"
       style="fill:#501400;stroke:#9c6000;stroke-width:15.412"
       id="path1319"
       inkscape:flatsided="true"
       sodipodi:sides="6"
       sodipodi:cx="2076.1558"
       sodipodi:cy="3922.543"
       sodipodi:r1="297.98953"
       sodipodi:r2="258.0665"
       sodipodi:arg1="2.0913441"
       sodipodi:arg2="2.6149429"
       inkscape:rounded="0.11"
       inkscape:randomized="0.106"
       d="m 1958.5339,4176.395 c -31.2924,-12.162 -168.0245,-224.4994 -163.856,-255.9407 4.1685,-31.4413 93.8391,-215.9596 121.5415,-230.917 27.7023,-14.9575 311.7045,-24.6101 339.0777,-5.7357 27.3731,18.8745 97.6935,215.4213 100.6812,248.9458 2.9877,33.5246 -131.5114,225.7062 -159.6154,241.3322 -28.104,15.6259 -206.5366,14.4774 -237.829,2.3154 z"
       inkscape:transform-center-x="0.80347824"
       inkscape:transform-center-y="6.9667268"
       transform="translate(-1895.2103,-1337.6835)" />
    <path
       sodipodi:type="star"
       style="fill:#501400;stroke:#9c6000;stroke-width:15.412"
       id="path1321"
       inkscape:flatsided="true"
       sodipodi:sides="6"
       sodipodi:cx="406.61389"
       sodipodi:cy="2057.1162"
       sodipodi:r1="279.9263"
       sodipodi:r2="242.42328"
       sodipodi:arg1="1.1425239"
       sodipodi:arg2="1.6661227"
       inkscape:rounded="0.11"
       inkscape:randomized="0.106"
       d="m 522.51349,2327.8665 c -28.58656,14.2093 -232.8958,-44.4527 -259.91663,-59.0104 -27.02082,-14.5577 -160.86037,-217.263 -153.09764,-246.9695 7.76273,-29.7064 168.12692,-223.7901 198.26,-233.4851 30.13307,-9.695 263.15114,48.857 289.4063,64.042 26.25516,15.185 113.44917,189.2244 105.74652,220.516 -7.70266,31.2916 -151.81199,240.6978 -180.39855,254.907 z"
       inkscape:transform-center-x="0.33055784"
       inkscape:transform-center-y="1.5801832"
       transform="translate(687.16881,927.39556)" />
    <path
       sodipodi:type="star"
       style="fill:#501400;stroke:#9c6000;stroke-width:15.412"
       id="path1323"
       inkscape:flatsided="true"
       sodipodi:sides="6"
       sodipodi:cx="2270.252"
       sodipodi:cy="3697.813"
       sodipodi:r1="282.00018"
       sodipodi:r2="244.21931"
       sodipodi:arg1="0.92217079"
       sodipodi:arg2="1.4457696"
       inkscape:rounded="0.11"
       inkscape:randomized="0.106"
       d="m 2412.2347,3951.1089 c -25.4754,16.0547 -200.3972,-8.6178 -228.5711,-20.2924 -28.1738,-11.6746 -221.9159,-141.4442 -221.6044,-171.0307 0.3115,-29.5864 124.4496,-271.6901 147.6889,-292.6998 23.2393,-21.0097 261.1621,-28.6419 289.3396,-16.6415 28.1774,12.0004 153.6442,200.3579 161.8203,230.8147 8.1762,30.4568 -123.198,253.795 -148.6733,269.8497 z"
       inkscape:transform-center-x="9.8677826"
       inkscape:transform-center-y="3.1112343"
       transform="matrix(1.1493251,0,0,1.1309627,-986.58756,100.25658)" />
  </g>
  <g
     inkscape:groupmode="layer"
     id="layer2"
     inkscape:label="corners"
     style="display:inline;fill:#000000;stroke:#000000"
     sodipodi:insensitive="true">
    <path
       sodipodi:type="star"
       style="fill:#501400;stroke:#682c00;stroke-width:15.412"
       id="path396"
       inkscape:flatsided="true"
       sodipodi:sides="5"
       sodipodi:cx="2246.4739"
       sodipodi:cy="1763.2639"
       sodipodi:r1="391.56757"
       sodipodi:r2="316.78482"
       sodipodi:arg1="0.42690921"
       sodipodi:arg2="1.0552277"
       inkscape:rounded="0.11"
       inkscape:randomized="0.106"
       d="m 2629.5105,1954.5117 c -23.3195,45.3424 -397.1776,206.3915 -444.9631,197.0694 -47.7854,-9.3221 -263.2261,-254.8509 -280.8968,-304.5964 -17.6707,-49.7456 71.2565,-397.2072 116.0731,-420.8955 44.8167,-23.6884 455.1093,-13.4626 487.022,25.6262 31.9127,39.0888 146.0844,457.454 122.7648,502.7963 z"
       inkscape:transform-center-x="-20.519136"
       inkscape:transform-center-y="19.448839"
       transform="translate(-1127.4161,1697.0602)" />
    <path
       sodipodi:type="star"
       style="fill:#501400;stroke:#682c00;stroke-width:15.412"
       id="path559"
       inkscape:flatsided="true"
       sodipodi:sides="5"
       sodipodi:cx="-334.85956"
       sodipodi:cy="565.8728"
       sodipodi:r1="553.27917"
       sodipodi:r2="447.61224"
       sodipodi:arg1="0.26037634"
       sodipodi:arg2="0.88869487"
       inkscape:rounded="0.11"
       inkscape:randomized="0.106"
       d="m 243.9353,760.20357 c -9.67881,70.91223 -521.00818,403.17853 -594.20908,416.12883 -73.2009,12.9502 -443.54718,-313.50103 -471.30773,-376.26011 -27.76056,-62.75907 105.86847,-665.91639 166.53686,-705.44972 60.66839,-39.533328 527.56234,4.236654 588.551774,36.81535 60.9894396,32.5787 320.106976,557.85342 310.428176,628.76565 z"
       inkscape:transform-center-x="-44.295334"
       inkscape:transform-center-y="61.946856"
       transform="translate(1239.7598,3458.3725)" />
    <path
       sodipodi:type="star"
       style="fill:#501400;stroke:#682c00;stroke-width:15.412"
       id="path561"
       inkscape:flatsided="true"
       sodipodi:sides="5"
       sodipodi:cx="1349.0447"
       sodipodi:cy="738.0918"
       sodipodi:r1="412.72858"
       sodipodi:r2="333.90445"
       sodipodi:arg1="0.85101909"
       sodipodi:arg2="1.4793376"
       inkscape:rounded="0.11"
       inkscape:randomized="0.106"
       d="m 1658.3609,1052.1412 c -44.0453,30.4312 -442.076,96.9917 -487.5238,68.9348 C 1125.3893,1093.0191 890.62743,681.31561 908.43521,633.62856 926.243,585.9415 1303.0214,367.91468 1354.6781,356.10055 c 51.6566,-11.81413 389.2909,150.10575 401.5821,199.25309 12.2913,49.14733 -53.8541,466.35626 -97.8993,496.78756 z"
       inkscape:transform-center-x="16.429456"
       inkscape:transform-center-y="3.5639248"
       transform="translate(-687.51954,2084.2203)" />
    <path
       sodipodi:type="star"
       style="fill:#6c3000;stroke:#682c00;stroke-width:15.412"
       id="path563"
       inkscape:flatsided="true"
       sodipodi:sides="6"
       sodipodi:cx="0"
       sodipodi:cy="1597.8749"
       sodipodi:r1="560.15558"
       sodipodi:r2="453.17538"
       sodipodi:arg1="0.38081035"
       sodipodi:arg2="0.90440913"
       inkscape:rounded="0.11"
       inkscape:randomized="0.106"
       d="m 481.96995,1762.4952 c -29.96786,56.6293 -338.80891,357.3896 -398.05084,367.1134 -59.241925,9.7239 -542.35589,-99.457 -576.57801,-146.9051 -34.22211,-47.448 -29.83275,-546.921 1.39522,-598.2423 31.22797,-51.3213 332.43061,-281.9925 396.095294,-293.7493 63.664683,-11.7568 535.090186,103.9176 576.578006,146.9051 41.48782,42.9874 30.52819,468.2488 0.56033,524.8782 z"
       inkscape:transform-center-x="17.68894"
       inkscape:transform-center-y="13.287371"
       transform="translate(486.336,1991.8755)" />
    <path
       sodipodi:type="star"
       style="fill:#501400;stroke:#682c00;stroke-width:15.412"
       id="path565"
       inkscape:flatsided="true"
       sodipodi:sides="5"
       sodipodi:cx="2050.3452"
       sodipodi:cy="1464.168"
       sodipodi:r1="382.48282"
       sodipodi:r2="309.43512"
       sodipodi:arg1="0.70254064"
       sodipodi:arg2="1.3308592"
       inkscape:rounded="0.11"
       inkscape:randomized="0.106"
       d="m 2379.3012,1700.4894 c -28.2028,37.99 -444.8826,139.8445 -490.4857,128.4861 -45.6031,-11.3584 -252.6055,-329.6062 -248.2118,-380.7845 4.3937,-51.1784 265.017,-302.8358 312.41,-320.3953 47.3931,-17.5594 379.6513,87.1566 399.1153,131.7129 19.464,44.5563 55.375,402.9908 27.1722,440.9808 z"
       inkscape:transform-center-x="34.716178"
       inkscape:transform-center-y="13.747949"
       transform="translate(-1928.8766,1543.9911)" />
    <path
       sodipodi:type="star"
       style="fill:#501400;stroke:#682c00;stroke-width:15.412"
       id="path569"
       inkscape:flatsided="true"
       sodipodi:sides="5"
       sodipodi:cx="2558.7966"
       sodipodi:cy="2716.1208"
       sodipodi:r1="248.43439"
       sodipodi:r2="200.98766"
       sodipodi:arg1="0.44509089"
       sodipodi:arg2="1.0734094"
       inkscape:rounded="0.11"
       inkscape:randomized="0.106"
       d="m 2770.9118,2811.8362 c -9.0845,29.7252 -227.4139,158.1209 -258.1654,150.955 -30.7516,-7.1659 -193.5179,-145.9779 -202.2872,-176.2462 -8.7694,-30.2683 76.9483,-261.5132 106.6054,-276.9887 29.657,-15.4756 305.2705,21.5034 331.9139,40.0715 26.6434,18.5681 31.0177,232.4832 21.9333,262.2084 z"
       inkscape:transform-center-x="16.271128"
       inkscape:transform-center-y="18.349859"
       transform="translate(-2592.577,757.55574)" />
    <path
       sodipodi:type="star"
       style="fill:#501400;stroke:#682c00;stroke-width:15.412"
       id="path571"
       inkscape:flatsided="true"
       sodipodi:sides="5"
       sodipodi:cx="3174.3984"
       sodipodi:cy="1905.4564"
       sodipodi:r1="343.77112"
       sodipodi:r2="278.11667"
       sodipodi:arg1="0.83373237"
       sodipodi:arg2="1.4620509"
       inkscape:rounded="0.11"
       inkscape:randomized="0.106"
       d="m 3381.4491,2186.8006 c -35.371,26.712 -326.0541,59.189 -360.3332,32.7665 -34.2791,-26.4225 -194.3727,-350.3573 -183.8281,-391.1744 10.5446,-40.8171 230.3551,-222.1671 273.1192,-228.7895 42.7641,-6.6224 340.3806,150.31 356.2342,189.8494 15.8537,39.5394 -49.821,370.636 -85.1921,397.348 z"
       inkscape:transform-center-x="23.645742"
       inkscape:transform-center-y="8.9278388"
       transform="translate(-2507.8892,2171.8681)" />
    <path
       sodipodi:type="star"
       style="fill:#501400;stroke:#682c00;stroke-width:15.412"
       id="path573"
       inkscape:flatsided="true"
       sodipodi:sides="5"
       sodipodi:cx="1105.2751"
       sodipodi:cy="2058.0476"
       sodipodi:r1="516.54614"
       sodipodi:r2="417.89462"
       sodipodi:arg1="1.0198283"
       sodipodi:arg2="1.6481469"
       inkscape:rounded="0.11"
       inkscape:randomized="0.106"
       d="m 1370.3345,2504.6237 c -62.3964,27.8814 -595.28571,-46.7445 -648.15953,-83.6362 -52.87383,-36.8917 -161.183,-500.1865 -125.79794,-558.412 35.38506,-58.2256 519.16157,-346.7234 583.25147,-335.6836 64.0899,11.0398 378.7538,355.0557 391.861,419.4022 13.1072,64.3465 -138.7585,530.4482 -201.155,558.3296 z"
       inkscape:transform-center-x="24.425359"
       inkscape:transform-center-y="-20.259315"
       transform="translate(-935.09519,2010.8042)" />
    <path
       sodipodi:type="star"
       style="fill:#682c00;stroke:#804400;stroke-width:15.412"
       id="path679"
       inkscape:flatsided="true"
       sodipodi:sides="5"
       sodipodi:cx="-296.06818"
       sodipodi:cy="-519.19135"
       sodipodi:r1="597.67554"
       sodipodi:r2="483.52966"
       sodipodi:arg1="1.0525401"
       sodipodi:arg2="1.6808587"
       inkscape:rounded="0.11"
       inkscape:randomized="0.106"
       d="m -63.353581,-63.351555 c -63.344399,47.943425 -550.600249,0.192073 -608.395929,-52.912785 -57.79568,-53.10486 -159.45311,-586.47639 -120.80343,-654.66943 38.64967,-68.19304 469.27703,-378.82913 543.62125,-368.27473 74.34421,10.5543 584.85974,427.42638 589.46344,508.16191 4.60371,80.73552 -340.54093391,519.75161 -403.885331,567.695035 z"
       inkscape:transform-center-x="-66.054174"
       inkscape:transform-center-y="-73.327363"
       transform="translate(2158.2066,1541.3236)" />
    <path
       sodipodi:type="star"
       style="fill:#682c00;stroke:#804400;stroke-width:15.412"
       id="path681"
       inkscape:flatsided="true"
       sodipodi:sides="5"
       sodipodi:cx="644.98041"
       sodipodi:cy="-1147.2229"
       sodipodi:r1="457.53931"
       sodipodi:r2="370.15707"
       sodipodi:arg1="0.72577941"
       sodipodi:arg2="1.3540979"
       inkscape:rounded="0.11"
       inkscape:randomized="0.106"
       d="m 1029.3238,-796.15456 c -45.16272,38.92049 -510.09526,95.9274 -566.96977,75.922 -56.87452,-20.00541 -264.47871,-449.64284 -253.78323,-509.44504 10.69549,-59.8022 266.52166,-386.2451 324.89306,-404.8274 58.3714,-18.5823 472.24554,215.3152 494.96384,271.5473 22.7183,56.2321 46.0588,527.88265 0.8961,566.80314 z"
       inkscape:transform-center-x="13.344842"
       inkscape:transform-center-y="-28.601986"
       transform="translate(1857.5523,1841.7392)" />
    <path
       sodipodi:type="star"
       style="fill:#682c00;stroke:#804400;stroke-width:15.412"
       id="path683"
       inkscape:flatsided="true"
       sodipodi:sides="5"
       sodipodi:cx="1283.3687"
       sodipodi:cy="-1566.012"
       sodipodi:r1="378.93527"
       sodipodi:r2="306.56506"
       sodipodi:arg1="0.57909104"
       sodipodi:arg2="1.2074096"
       inkscape:rounded="0.11"
       inkscape:randomized="0.106"
       d="m 1560.6519,-1319.1784 c -27.7917,37.3048 -317.5441,151.039 -362.8418,132.4139 -45.2977,-18.6251 -291.87822,-290.3906 -286.63078,-338.2305 5.24745,-47.8399 204.04448,-377.1885 252.36078,-394.9943 48.3164,-17.8057 395.8451,86.5624 430.6455,124.5452 34.8004,37.9827 -5.742,438.9608 -33.5337,476.2657 z"
       inkscape:transform-center-x="-10.939834"
       inkscape:transform-center-y="-10.426078"
       transform="rotate(25.251381,-4012.7165,-461.77747)" />
    <path
       sodipodi:type="star"
       style="fill:#682c00;stroke:#804400;stroke-width:15.412"
       id="path685"
       inkscape:flatsided="true"
       sodipodi:sides="5"
       sodipodi:cx="1752.759"
       sodipodi:cy="-1553.3657"
       sodipodi:r1="364.21524"
       sodipodi:r2="294.65631"
       sodipodi:arg1="0.59131592"
       sodipodi:arg2="1.2196345"
       inkscape:rounded="0.11"
       inkscape:randomized="0.106"
       d="m 2017.0709,-1320.5433 c -26.0705,38.6188 -301.2872,127.1457 -346.4558,115.3592 -45.1686,-11.7865 -287.4837,-313.6437 -284.4852,-358.3995 2.9984,-44.7558 194.7012,-318.935 241.4895,-332.4613 46.7883,-13.5263 388.3723,67.2052 411.0003,105.9215 22.6279,38.7163 4.5216,430.9614 -21.5488,469.5801 z"
       inkscape:transform-center-x="35.256424"
       inkscape:transform-center-y="2.531632"
       transform="translate(921.74616,1737.6995)" />
    <path
       sodipodi:type="star"
       style="fill:#884c00;stroke:#804400;stroke-width:15.412"
       id="path687"
       inkscape:flatsided="true"
       sodipodi:sides="5"
       sodipodi:cx="2531.821"
       sodipodi:cy="-1196.3365"
       sodipodi:r1="918.84576"
       sodipodi:r2="743.36182"
       sodipodi:arg1="0.98327841"
       sodipodi:arg2="1.6115969"
       inkscape:rounded="0.11"
       inkscape:randomized="0.106"
       d="m 3012.0296,-378.47488 c -98.952,74.62867 -879.7674,57.5823 -969.3417,-14.05922 -89.5744,-71.64152 -365.3275,-1044.2505 -310.0475,-1151.0641 55.2799,-106.8136 785.518,-630.8801 899.4245,-641.8132 113.9064,-10.9331 687.6279,546.7833 721.9548,665.8841 34.327,119.1007 -243.0381,1066.42374 -341.9901,1141.05242 z"
       inkscape:transform-center-x="-8.1728995"
       inkscape:transform-center-y="-42.069104"
       transform="matrix(0.87491622,0,0,0.68441044,-346.91854,1089.6721)" />
    <path
       sodipodi:type="star"
       style="fill:#682c00;stroke:#804400;stroke-width:15.412"
       id="path689"
       inkscape:flatsided="true"
       sodipodi:sides="5"
       sodipodi:cx="3675.8816"
       sodipodi:cy="-1905.3354"
       sodipodi:r1="457.99744"
       sodipodi:r2="370.52771"
       sodipodi:arg1="0"
       sodipodi:arg2="0.62831853"
       inkscape:rounded="0.11"
       inkscape:randomized="0.106"
       d="m 4132.3028,-1933.0787 c 4.0911,58.8557 -273.4447,430.2104 -326.5547,451.1968 -53.11,20.9864 -460.8645,-129.0358 -500.6293,-175.2942 -39.7648,-46.2584 -39.5112,-441.8157 -1.093,-490.5763 38.4182,-48.7606 449.1728,-182.737 502.5467,-160.366 53.374,22.3709 321.6391,316.1839 325.7303,375.0397 z"
       inkscape:transform-center-x="-27.918588"
       inkscape:transform-center-y="5.6392918"
       transform="translate(-3423.5055,2612.5697)" />
    <path
       sodipodi:type="star"
       style="fill:#682c00;stroke:#804400;stroke-width:15.412"
       id="path691"
       inkscape:flatsided="true"
       sodipodi:sides="5"
       sodipodi:cx="4490.3984"
       sodipodi:cy="-1196.3365"
       sodipodi:r1="291.17801"
       sodipodi:r2="235.56796"
       sodipodi:arg1="0.90113946"
       sodipodi:arg2="1.529458"
       inkscape:rounded="0.11"
       inkscape:randomized="0.106"
       d="m 4691.0223,-971.95088 c -33.182,20.14249 -319.446,49.14371 -350.281,27.49384 -30.8349,-21.64987 -132.4926,-296.35446 -118.9104,-331.74546 13.5822,-35.3909 212.0247,-215.6292 249.3636,-213.0283 37.339,2.6008 273.2819,168.9462 280.8235,205.4547 7.5416,36.5086 -27.8136,291.68274 -60.9957,311.82522 z"
       inkscape:transform-center-x="1.5285682"
       inkscape:transform-center-y="-2.2608766"
       transform="translate(-3583.382,1878.8558)" />
    <path
       sodipodi:type="star"
       style="fill:#682c00;stroke:#804400;stroke-width:15.412"
       id="path693"
       inkscape:flatsided="true"
       sodipodi:sides="5"
       sodipodi:cx="5380.814"
       sodipodi:cy="-1794.6648"
       sodipodi:r1="336.92664"
       sodipodi:r2="272.57938"
       sodipodi:arg1="1.0833582"
       sodipodi:arg2="1.7116768"
       inkscape:rounded="0.11"
       inkscape:randomized="0.106"
       d="m 5507.6013,-1527.4823 c -42.4419,14.5738 -344.1765,38.4304 -371.2837,2.8217 -27.1071,-35.6088 -54.5328,-393.4275 -39.1371,-432.7836 15.3956,-39.3561 290.5653,-166.759 332.3848,-157.7517 41.8195,9.0073 286.1681,214.4149 299.9968,256.2414 13.8288,41.8264 -179.519,316.8985 -221.9608,331.4722 z"
       inkscape:transform-center-x="-30.315627"
       inkscape:transform-center-y="-25.333839"
       transform="translate(-4152.2421,2039.7059)" />
    <path
       sodipodi:type="star"
       style="fill:#682c00;stroke:#804400;stroke-width:15.412"
       id="path695"
       inkscape:flatsided="true"
       sodipodi:sides="5"
       sodipodi:cx="6603.5337"
       sodipodi:cy="-1699.9023"
       sodipodi:r1="420.69458"
       sodipodi:r2="340.34906"
       sodipodi:arg1="0.9506133"
       sodipodi:arg2="1.5789318"
       inkscape:rounded="0.11"
       inkscape:randomized="0.106"
       d="m 6890.8268,-1323.7646 c -48.3231,23.7019 -522.1435,23.7905 -559.9625,-13.2768 -37.8189,-37.0673 -179.4034,-406.1158 -160.4765,-457.4692 18.9269,-51.3535 391.8294,-342.9631 446.0487,-347.322 54.2192,-4.3589 410.283,299.2139 418.9363,355.3148 8.6533,56.101 -96.2229,439.0512 -144.546,462.7532 z"
       inkscape:transform-center-x="13.299797"
       inkscape:transform-center-y="5.3879831"
       transform="rotate(-19.140256,9369.6471,16685.429)" />
    <path
       sodipodi:type="star"
       style="fill:#682c00;stroke:#804400;stroke-width:15.412"
       id="path697"
       inkscape:flatsided="true"
       sodipodi:sides="5"
       sodipodi:cx="7328.3921"
       sodipodi:cy="-1299.6377"
       sodipodi:r1="399.13657"
       sodipodi:r2="322.90826"
       sodipodi:arg1="0.98050875"
       sodipodi:arg2="1.6088273"
       inkscape:rounded="0.11"
       inkscape:randomized="0.106"
       d="m 7591.4937,-940.84846 c -45.7084,20.98694 -490.289,-48.93145 -533.7858,-80.14274 -43.4969,-31.2112 -89.5407,-383.0396 -75.085,-432.7349 14.4558,-49.6952 347.9278,-220.0609 399.8548,-221.7033 51.9271,-1.6424 289.6203,197.828 307.4034,247.3672 17.7831,49.5391 -52.6789,466.2268 -98.3874,487.21374 z"
       inkscape:transform-center-x="-7.9132609"
       inkscape:transform-center-y="-6.5748255"
       transform="translate(-7135.9296,1527.1287)" />
    <path
       sodipodi:type="star"
       style="fill:#501400;stroke:#682c00;stroke-width:15.412"
       id="path1126"
       inkscape:flatsided="true"
       sodipodi:sides="5"
       sodipodi:cx="2246.4739"
       sodipodi:cy="1763.2639"
       sodipodi:r1="391.56757"
       sodipodi:r2="316.78482"
       sodipodi:arg1="0.42690921"
       sodipodi:arg2="1.0552277"
       inkscape:rounded="0.11"
       inkscape:randomized="0.106"
       d="m 2629.5105,1954.5117 c -23.3195,45.3424 -397.1776,206.3915 -444.9631,197.0694 -47.7854,-9.3221 -263.2261,-254.8509 -280.8968,-304.5964 -17.6707,-49.7456 71.2565,-397.2072 116.0731,-420.8955 44.8167,-23.6884 455.1093,-13.4626 487.022,25.6262 31.9127,39.0888 146.0844,457.454 122.7648,502.7963 z"
       inkscape:transform-center-x="-20.519136"
       inkscape:transform-center-y="19.448839"
       transform="rotate(180,4394.4443,1298.0572)" />
    <path
       sodipodi:type="star"
       style="fill:#501400;stroke:#682c00;stroke-width:15.412"
       id="path1128"
       inkscape:flatsided="true"
       sodipodi:sides="5"
       sodipodi:cx="-334.85956"
       sodipodi:cy="565.8728"
       sodipodi:r1="553.27917"
       sodipodi:r2="447.61224"
       sodipodi:arg1="0.26037634"
       sodipodi:arg2="0.88869487"
       inkscape:rounded="0.11"
       inkscape:randomized="0.106"
       d="m 243.9353,760.20357 c -9.67881,70.91223 -521.00818,403.17853 -594.20908,416.12883 -73.2009,12.9502 -443.54718,-313.50103 -471.30773,-376.26011 -27.76056,-62.75907 105.86847,-665.91639 166.53686,-705.44972 60.66839,-39.533328 527.56234,4.236654 588.551774,36.81535 60.9894396,32.5787 320.106976,557.85342 310.428176,628.76565 z"
       inkscape:transform-center-x="-44.295334"
       inkscape:transform-center-y="61.946856"
       transform="rotate(180,3177.6847,391.46725)" />
    <path
       sodipodi:type="star"
       style="fill:#501400;stroke:#682c00;stroke-width:15.412"
       id="path1130"
       inkscape:flatsided="true"
       sodipodi:sides="5"
       sodipodi:cx="1349.0447"
       sodipodi:cy="738.0918"
       sodipodi:r1="412.72858"
       sodipodi:r2="333.90445"
       sodipodi:arg1="0.85101909"
       sodipodi:arg2="1.4793376"
       inkscape:rounded="0.11"
       inkscape:randomized="0.106"
       d="m 1658.3609,1052.1412 c -44.0453,30.4312 -442.076,96.9917 -487.5238,68.9348 C 1125.3893,1093.0191 890.62743,681.31561 908.43521,633.62856 926.243,585.9415 1303.0214,367.91468 1354.6781,356.10055 c 51.6566,-11.81413 389.2909,150.10575 401.5821,199.25309 12.2913,49.14733 -53.8541,466.35626 -97.8993,496.78756 z"
       inkscape:transform-center-x="16.429456"
       inkscape:transform-center-y="3.5639248"
       transform="rotate(180,4132.8132,1045.8429)" />
    <path
       sodipodi:type="star"
       style="fill:#6c3000;stroke:#682c00;stroke-width:15.412"
       id="path1132"
       inkscape:flatsided="true"
       sodipodi:sides="6"
       sodipodi:cx="0"
       sodipodi:cy="1597.8749"
       sodipodi:r1="560.15558"
       sodipodi:r2="453.17538"
       sodipodi:arg1="0.38081035"
       sodipodi:arg2="0.90440913"
       inkscape:rounded="0.11"
       inkscape:randomized="0.106"
       d="m 481.96995,1762.4952 c -29.96786,56.6293 -338.80891,357.3896 -398.05084,367.1134 -59.241925,9.7239 -542.35589,-99.457 -576.57801,-146.9051 -34.22211,-47.448 -29.83275,-546.921 1.39522,-598.2423 31.22797,-51.3213 332.43061,-281.9925 396.095294,-293.7493 63.664683,-11.7568 535.090186,103.9176 576.578006,146.9051 41.48782,42.9874 30.52819,468.2488 0.56033,524.8782 z"
       inkscape:transform-center-x="17.68894"
       inkscape:transform-center-y="13.287371"
       transform="rotate(180,3565.018,1124.2396)" />
    <path
       sodipodi:type="star"
       style="fill:#501400;stroke:#682c00;stroke-width:15.412"
       id="path1134"
       inkscape:flatsided="true"
       sodipodi:sides="5"
       sodipodi:cx="2050.3452"
       sodipodi:cy="1464.168"
       sodipodi:r1="382.48282"
       sodipodi:r2="309.43512"
       sodipodi:arg1="0.70254064"
       sodipodi:arg2="1.3308592"
       inkscape:rounded="0.11"
       inkscape:randomized="0.106"
       d="m 2379.3012,1700.4894 c -28.2028,37.99 -444.8826,139.8445 -490.4857,128.4861 -45.6031,-11.3584 -252.6055,-329.6062 -248.2118,-380.7845 4.3937,-51.1784 265.017,-302.8358 312.41,-320.3953 47.3931,-17.5594 379.6513,87.1566 399.1153,131.7129 19.464,44.5563 55.375,402.9908 27.1722,440.9808 z"
       inkscape:transform-center-x="34.716178"
       inkscape:transform-center-y="13.747949"
       transform="rotate(180,4765.71,1353.3774)" />
    <path
       sodipodi:type="star"
       style="fill:#501400;stroke:#682c00;stroke-width:15.412"
       id="path1136"
       inkscape:flatsided="true"
       sodipodi:sides="5"
       sodipodi:cx="2558.7966"
       sodipodi:cy="2716.1208"
       sodipodi:r1="248.43439"
       sodipodi:r2="200.98766"
       sodipodi:arg1="0.44509089"
       sodipodi:arg2="1.0734094"
       inkscape:rounded="0.11"
       inkscape:randomized="0.106"
       d="m 2770.9118,2811.8362 c -9.0845,29.7252 -227.4139,158.1209 -258.1654,150.955 -30.7516,-7.1659 -193.5179,-145.9779 -202.2872,-176.2462 -8.7694,-30.2683 76.9483,-261.5132 106.6054,-276.9887 29.657,-15.4756 305.2705,21.5034 331.9139,40.0715 26.6434,18.5681 31.0177,232.4832 21.9333,262.2084 z"
       inkscape:transform-center-x="19.31285"
       inkscape:transform-center-y="21.882721"
       transform="matrix(-1.1869476,0,0,-1.1925297,10630.693,4102.8826)" />
    <path
       sodipodi:type="star"
       style="fill:#501400;stroke:#682c00;stroke-width:15.412"
       id="path1138"
       inkscape:flatsided="true"
       sodipodi:sides="5"
       sodipodi:cx="3174.3984"
       sodipodi:cy="1905.4564"
       sodipodi:r1="343.77112"
       sodipodi:r2="278.11667"
       sodipodi:arg1="0.83373237"
       sodipodi:arg2="1.4620509"
       inkscape:rounded="0.11"
       inkscape:randomized="0.106"
       d="m 3381.4491,2186.8006 c -35.371,26.712 -326.0541,59.189 -360.3332,32.7665 -34.2791,-26.4225 -194.3727,-350.3573 -183.8281,-391.1744 10.5446,-40.8171 230.3551,-222.1671 273.1192,-228.7895 42.7641,-6.6224 340.3806,150.31 356.2342,189.8494 15.8537,39.5394 -49.821,370.636 -85.1921,397.348 z"
       inkscape:transform-center-x="23.645742"
       inkscape:transform-center-y="8.9278388"
       transform="rotate(180,5077.9418,1034.7194)" />
    <path
       sodipodi:type="star"
       style="fill:#501400;stroke:#682c00;stroke-width:15.412"
       id="path1140"
       inkscape:flatsided="true"
       sodipodi:sides="5"
       sodipodi:cx="1105.2751"
       sodipodi:cy="2058.0476"
       sodipodi:r1="516.54614"
       sodipodi:r2="417.89462"
       sodipodi:arg1="1.0198283"
       sodipodi:arg2="1.6481469"
       inkscape:rounded="0.11"
       inkscape:randomized="0.106"
       d="m 1370.3345,2504.6237 c -62.3964,27.8814 -595.28571,-46.7445 -648.15953,-83.6362 -52.87383,-36.8917 -161.183,-500.1865 -125.79794,-558.412 35.38506,-58.2256 519.16157,-346.7234 583.25147,-335.6836 64.0899,11.0398 378.7538,355.0557 391.861,419.4022 13.1072,64.3465 -138.7585,530.4482 -201.155,558.3296 z"
       inkscape:transform-center-x="24.425359"
       inkscape:transform-center-y="-20.259315"
       transform="rotate(180,4311.382,1123.7119)" />
    <path
       sodipodi:type="star"
       style="fill:#682c00;stroke:#804400;stroke-width:15.412"
       id="path1142"
       inkscape:flatsided="true"
       sodipodi:sides="5"
       sodipodi:cx="-296.06818"
       sodipodi:cy="-519.19135"
       sodipodi:r1="597.67554"
       sodipodi:r2="483.52966"
       sodipodi:arg1="1.0525401"
       sodipodi:arg2="1.6808587"
       inkscape:rounded="0.11"
       inkscape:randomized="0.106"
       d="m -63.353581,-63.351555 c -63.344399,47.943425 -550.600249,0.192073 -608.395929,-52.912785 -57.79568,-53.10486 -159.45311,-586.47639 -120.80343,-654.66943 38.64967,-68.19304 469.27703,-378.82913 543.62125,-368.27473 74.34421,10.5543 584.85974,427.42638 589.46344,508.16191 4.60371,80.73552 -340.54093391,519.75161 -403.885331,567.695035 z"
       inkscape:transform-center-x="-66.054174"
       inkscape:transform-center-y="-73.327363"
       transform="rotate(180,2743.265,1505.673)" />
    <path
       sodipodi:type="star"
       style="fill:#682c00;stroke:#804400;stroke-width:15.412"
       id="path1144"
       inkscape:flatsided="true"
       sodipodi:sides="5"
       sodipodi:cx="644.98041"
       sodipodi:cy="-1147.2229"
       sodipodi:r1="457.53931"
       sodipodi:r2="370.15707"
       sodipodi:arg1="0.72577941"
       sodipodi:arg2="1.3540979"
       inkscape:rounded="0.11"
       inkscape:randomized="0.106"
       d="m 1029.3238,-796.15456 c -45.16272,38.92049 -510.09526,95.9274 -566.96977,75.922 -56.87452,-20.00541 -264.47871,-449.64284 -253.78323,-509.44504 10.69549,-59.8022 266.52166,-386.2451 324.89306,-404.8274 58.3714,-18.5823 472.24554,215.3152 494.96384,271.5473 22.7183,56.2321 46.0588,527.88265 0.8961,566.80314 z"
       inkscape:transform-center-x="13.344842"
       inkscape:transform-center-y="-28.601986"
       transform="rotate(180,2877.1529,1239.9763)" />
    <path
       sodipodi:type="star"
       style="fill:#682c00;stroke:#804400;stroke-width:15.412"
       id="path1146"
       inkscape:flatsided="true"
       sodipodi:sides="5"
       sodipodi:cx="1283.3687"
       sodipodi:cy="-1566.012"
       sodipodi:r1="378.93527"
       sodipodi:r2="306.56506"
       sodipodi:arg1="0.57909104"
       sodipodi:arg2="1.2074096"
       inkscape:rounded="0.11"
       inkscape:randomized="0.106"
       d="m 1560.6519,-1319.1784 c -27.7917,37.3048 -317.5441,151.039 -362.8418,132.4139 -45.2977,-18.6251 -291.87822,-290.3906 -286.63078,-338.2305 5.24745,-47.8399 204.04448,-377.1885 252.36078,-394.9943 48.3164,-17.8057 395.8451,86.5624 430.6455,124.5452 34.8004,37.9827 -5.742,438.9608 -33.5337,476.2657 z"
       inkscape:transform-center-x="-10.939834"
       inkscape:transform-center-y="-10.426078"
       transform="rotate(-154.74862,4432.6942,429.57657)" />
    <path
       sodipodi:type="star"
       style="fill:#682c00;stroke:#804400;stroke-width:15.412"
       id="path1148"
       inkscape:flatsided="true"
       sodipodi:sides="5"
       sodipodi:cx="1752.759"
       sodipodi:cy="-1553.3657"
       sodipodi:r1="364.21524"
       sodipodi:r2="294.65631"
       sodipodi:arg1="0.59131592"
       sodipodi:arg2="1.2196345"
       inkscape:rounded="0.11"
       inkscape:randomized="0.106"
       d="m 2017.0709,-1320.5433 c -26.0705,38.6188 -301.2872,127.1457 -346.4558,115.3592 -45.1686,-11.7865 -287.4837,-313.6437 -284.4852,-358.3995 2.9984,-44.7558 194.7012,-318.935 241.4895,-332.4613 46.7883,-13.5263 388.3723,67.2052 411.0003,105.9215 22.6279,38.7163 4.5216,430.9614 -21.5488,469.5801 z"
       inkscape:transform-center-x="35.256424"
       inkscape:transform-center-y="2.531632"
       transform="rotate(180,3345.056,1291.9962)" />
    <path
       sodipodi:type="star"
       style="fill:#884c00;stroke:#804400;stroke-width:15.412"
       id="path1150"
       inkscape:flatsided="true"
       sodipodi:sides="5"
       sodipodi:cx="2531.821"
       sodipodi:cy="-1196.3365"
       sodipodi:r1="918.84576"
       sodipodi:r2="743.36182"
       sodipodi:arg1="0.98327841"
       sodipodi:arg2="1.6115969"
       inkscape:rounded="0.11"
       inkscape:randomized="0.106"
       d="m 3012.0296,-378.47488 c -98.952,74.62867 -879.7674,57.5823 -969.3417,-14.05922 -89.5744,-71.64152 -365.3275,-1044.2505 -310.0475,-1151.0641 55.2799,-106.8136 785.518,-630.8801 899.4245,-641.8132 113.9064,-10.9331 687.6279,546.7833 721.9548,665.8841 34.327,119.1007 -243.0381,1066.42374 -341.9901,1141.05242 z"
       inkscape:transform-center-x="-8.1728995"
       inkscape:transform-center-y="-42.069104"
       transform="matrix(-0.87491622,0,0,-0.68441044,7996.9789,3440.0568)" />
    <path
       sodipodi:type="star"
       style="fill:#682c00;stroke:#804400;stroke-width:15.412"
       id="path1152"
       inkscape:flatsided="true"
       sodipodi:sides="5"
       sodipodi:cx="3675.8816"
       sodipodi:cy="-1905.3354"
       sodipodi:r1="457.99744"
       sodipodi:r2="370.52771"
       sodipodi:arg1="0"
       sodipodi:arg2="0.62831853"
       inkscape:rounded="0.11"
       inkscape:randomized="0.106"
       d="m 4132.3028,-1933.0787 c 4.0911,58.8557 -273.4447,430.2104 -326.5547,451.1968 -53.11,20.9864 -460.8645,-129.0358 -500.6293,-175.2942 -39.7648,-46.2584 -39.5112,-441.8157 -1.093,-490.5763 38.4182,-48.7606 449.1728,-182.737 502.5467,-160.366 53.374,22.3709 321.6391,316.1839 325.7303,375.0397 z"
       inkscape:transform-center-x="-27.918588"
       inkscape:transform-center-y="5.6392918"
       transform="rotate(180,5517.6818,854.56105)" />
    <path
       sodipodi:type="star"
       style="fill:#682c00;stroke:#804400;stroke-width:15.412"
       id="path1154"
       inkscape:flatsided="true"
       sodipodi:sides="5"
       sodipodi:cx="4490.3984"
       sodipodi:cy="-1196.3365"
       sodipodi:r1="291.17801"
       sodipodi:r2="235.56796"
       sodipodi:arg1="0.90113946"
       sodipodi:arg2="1.529458"
       inkscape:rounded="0.11"
       inkscape:randomized="0.106"
       d="m 4691.0223,-971.95088 c -33.182,20.14249 -319.446,49.14371 -350.281,27.49384 -30.8349,-21.64987 -132.4926,-296.35446 -118.9104,-331.74546 13.5822,-35.3909 212.0247,-215.6292 249.3636,-213.0283 37.339,2.6008 273.2819,168.9462 280.8235,205.4547 7.5416,36.5086 -27.8136,291.68274 -60.9957,311.82522 z"
       inkscape:transform-center-x="1.5285682"
       inkscape:transform-center-y="-2.2608766"
       transform="rotate(180,5622.038,1194.9326)" />
    <path
       sodipodi:type="star"
       style="fill:#682c00;stroke:#804400;stroke-width:15.412"
       id="path1156"
       inkscape:flatsided="true"
       sodipodi:sides="5"
       sodipodi:cx="5380.814"
       sodipodi:cy="-1794.6648"
       sodipodi:r1="336.92664"
       sodipodi:r2="272.57938"
       sodipodi:arg1="1.0833582"
       sodipodi:arg2="1.7116768"
       inkscape:rounded="0.11"
       inkscape:randomized="0.106"
       d="m 5507.6013,-1527.4823 c -42.4419,14.5738 -344.1765,38.4304 -371.2837,2.8217 -27.1071,-35.6088 -54.5328,-393.4275 -39.1371,-432.7836 15.3956,-39.3561 290.5653,-166.759 332.3848,-157.7517 41.8195,9.0073 286.1681,214.4149 299.9968,256.2414 13.8288,41.8264 -179.519,316.8985 -221.9608,331.4722 z"
       inkscape:transform-center-x="-30.315627"
       inkscape:transform-center-y="-25.333839"
       transform="rotate(180,5876.379,1067.6111)" />
    <path
       sodipodi:type="star"
       style="fill:#682c00;stroke:#804400;stroke-width:15.412"
       id="path1156-3"
       inkscape:flatsided="true"
       sodipodi:sides="5"
       sodipodi:cx="5380.814"
       sodipodi:cy="-1794.6648"
       sodipodi:r1="336.92664"
       sodipodi:r2="272.57938"
       sodipodi:arg1="1.0833582"
       sodipodi:arg2="1.7116768"
       inkscape:rounded="0.11"
       inkscape:randomized="0.106"
       d="m 5507.6013,-1527.4823 c -42.4419,14.5738 -344.1765,38.4304 -371.2837,2.8217 -27.1071,-35.6088 -54.5328,-393.4275 -39.1371,-432.7836 15.3956,-39.3561 290.5653,-166.759 332.3848,-157.7517 41.8195,9.0073 286.1681,214.4149 299.9968,256.2414 13.8288,41.8264 -179.519,316.8985 -221.9608,331.4722 z"
       inkscape:transform-center-x="-30.315627"
       inkscape:transform-center-y="-25.333839"
       transform="rotate(180,6181.2774,1073.0613)" />
    <path
       sodipodi:type="star"
       style="fill:#682c00;stroke:#804400;stroke-width:15.412"
       id="path1156-3-6"
       inkscape:flatsided="true"
       sodipodi:sides="5"
       sodipodi:cx="5380.814"
       sodipodi:cy="-1794.6648"
       sodipodi:r1="336.92664"
       sodipodi:r2="272.57938"
       sodipodi:arg1="1.0833582"
       sodipodi:arg2="1.7116768"
       inkscape:rounded="0.11"
       inkscape:randomized="0.106"
       d="m 5507.6013,-1527.4823 c -42.4419,14.5738 -344.1765,38.4304 -371.2837,2.8217 -27.1071,-35.6088 -54.5328,-393.4275 -39.1371,-432.7836 15.3956,-39.3561 290.5653,-166.759 332.3848,-157.7517 41.8195,9.0073 286.1681,214.4149 299.9968,256.2414 13.8288,41.8264 -179.519,316.8985 -221.9608,331.4722 z"
       inkscape:transform-center-x="-51.111897"
       inkscape:transform-center-y="-78.789895"
       transform="rotate(156.6465,5514.6907,1401.622)" />
    <path
       sodipodi:type="star"
       style="fill:#682c00;stroke:#804400;stroke-width:15.412"
       id="path1158"
       inkscape:flatsided="true"
       sodipodi:sides="5"
       sodipodi:cx="6603.5337"
       sodipodi:cy="-1699.9023"
       sodipodi:r1="420.69458"
       sodipodi:r2="340.34906"
       sodipodi:arg1="0.9506133"
       sodipodi:arg2="1.5789318"
       inkscape:rounded="0.11"
       inkscape:randomized="0.106"
       d="m 6890.8268,-1323.7646 c -48.3231,23.7019 -522.1435,23.7905 -559.9625,-13.2768 -37.8189,-37.0673 -179.4034,-406.1158 -160.4765,-457.4692 18.9269,-51.3535 391.8294,-342.9631 446.0487,-347.322 54.2192,-4.3589 410.283,299.2139 418.9363,355.3148 8.6533,56.101 -96.2229,439.0512 -144.546,462.7532 z"
       inkscape:transform-center-x="13.299797"
       inkscape:transform-center-y="5.3879831"
       transform="rotate(160.85974,6093.5411,1217.1801)" />
    <path
       sodipodi:type="star"
       style="fill:#682c00;stroke:#804400;stroke-width:15.412"
       id="path1160"
       inkscape:flatsided="true"
       sodipodi:sides="5"
       sodipodi:cx="7328.3921"
       sodipodi:cy="-1299.6377"
       sodipodi:r1="399.13657"
       sodipodi:r2="322.90826"
       sodipodi:arg1="0.98050875"
       sodipodi:arg2="1.6088273"
       inkscape:rounded="0.11"
       inkscape:randomized="0.106"
       d="m 7591.4937,-940.84846 c -45.7084,20.98694 -490.289,-48.93145 -533.7858,-80.14274 -43.4969,-31.2112 -89.5407,-383.0396 -75.085,-432.7349 14.4558,-49.6952 347.9278,-220.0609 399.8548,-221.7033 51.9271,-1.6424 289.6203,197.828 307.4034,247.3672 17.7831,49.5391 -52.6789,466.2268 -98.3874,487.21374 z"
       inkscape:transform-center-x="-7.9132609"
       inkscape:transform-center-y="-6.5748255"
       transform="rotate(180,7373.8939,1397.2815)" />
  </g>
</svg>
