<svg
id="total_svg"
class="frame"
xmlns="http://www.w3.org/2000/svg"
width="90vw"
height="95vh"
margin="max(4px,1vh,1vw)"
viewBox="0 0 292 292">
<defs>
    <g id="korken">
        <path class="korken_sprite"  xmlns="http://www.w3.org/2000/svg"
transform="translate(1 1)"
d="
M278.2 152.1
c-1.3-1.3-2-3.1-2-5
v-10.8
c0-1.8.7-3.6 2-4.9
l2-2.1
c5.3-5.6 3.9-14.8-2.9-18.4
l-2.6-1.4
c-1.6-.9-2.9-2.3-3.4-4.1
L268 95
c-.6-1.8-.4-3.7.4-5.3
l1.3-2.6
c3.4-7-.9-15.2-8.5-16.6
l-2.9-.5
c-1.8-.3-3.4-1.3-4.5-2.8
l-6.4-8.8
c-1.1-1.5-1.6-3.3-1.3-5.2
l.4-2.9
c1-7.7-5.5-14.2-13.2-13.2
l-2.9.4
c-1.8.2-3.7-.2-5.2-1.3
l-8.8-6.4
c-1.5-1.1-2.5-2.7-2.8-4.5
l-.5-2.9
c-1.4-7.6-9.7-11.8-16.6-8.5
l-2.6 1.3
c-1.7.8-3.6.9-5.3.4
l-10.3-3.4
c-1.8-.6-3.2-1.8-4.1-3.4
l-1.4-2.6
c-3.7-6.8-12.8-8.3-18.4-2.9
l-2.1 2
c-1.3 1.3-3.1 2-4.9 2
h-10.8
c-1.8 0-3.6-.7-4.9-2
l-2.1-2
C124-2 114.8-.6 111.2 6.2
l-1.4 2.6
c-.9 1.6-2.3 2.9-4.1 3.4
L95 15.5
c-1.8.6-3.7.4-5.3-.4
l-2.6-1.3
c-7-3.4-15.2.9-16.6 8.5
l-.5 2.9
c-.3 1.8-1.3 3.4-2.8 4.5
l-8.8 6.4
c-1.5 1.1-3.3 1.5-5.2 1.3
l-3-.4
C42.5 36 36 42.6 37 50.2
l.4 2.9
c.2 1.8-.2 3.7-1.3 5.2
l-6.4 8.8
c-1.1 1.5-2.7 2.5-4.5 2.8
l-2.9.5
c-7.6 1.4-11.8 9.7-8.5 16.6
l1.3 2.6
c.8 1.7.9 3.6.4 5.3
l-3.4 10.3
c-.6 1.8-1.8 3.2-3.4 4.1
l-2.6 1.4
c-6.8 3.7-8.3 12.8-2.9 18.4
l2 2.1
c1.3 1.3 2 3.1 2 4.9
v10.8
c0 1.8-.7 3.6-2 4.9
l-2 2.1
c-5.3 5.6-3.9 14.8 2.9 18.4
l2.6 1.4
c1.6.9 2.9 2.4 3.4 4.1
l3.4 10.3
c.6 1.8.4 3.7-.4 5.3
l-1.3 2.6
c-3.4 7 .9 15.2 8.5 16.6
l2.9.5
c1.8.3 3.4 1.4 4.5 2.8
l6.4 8.8
c1.1 1.5 1.5 3.3 1.3 5.2
l-.4 2.9
c-1 7.7 5.5 14.2 13.2 13.2
l2.9-.4
c1.8-.2 3.7.2 5.2 1.3
l8.8 6.4
c1.5 1.1 2.5 2.7 2.8 4.5
l.5 2.9
c1.4 7.6 9.7 11.8 16.6 8.5
l2.6-1.3
c1.7-.8 3.6-.9 5.3-.4
l10.3 3.4
c1.8.6 3.2 1.8 4.1 3.4
l1.4 2.6
c3.7 6.8 12.8 8.3 18.4 2.9
l2.1-2
c1.3-1.3 3.1-2 5-2
H147
c1.8 0 3.6.7 4.9 2
l2.1 2
c5.6 5.3 14.8 3.9 18.4-2.9
l1.4-2.6
c.9-1.6 2.3-2.9 4.1-3.4
l10.3-3.4
c1.8-.6 3.7-.4 5.3.4
l2.6 1.3
c7 3.4 15.2-.9 16.6-8.5
l.5-2.9
c.3-1.8 1.4-3.4 2.8-4.5
l4.4-3.2
h-.1
l4.4-3.2
c1.5-1.1 3.3-1.6 5.2-1.3
l2.9.4
c7.7 1 14.2-5.5 13.2-13.2
l-.4-2.9
c-.2-1.8.2-3.7 1.3-5.2
l6.4-8.8
c1.1-1.5 2.7-2.5 4.5-2.8
l2.9-.5
c7.6-1.4 11.8-9.7 8.5-16.6
l-1.3-2.6
c-.8-1.7-.9-3.6-.4-5.3
l3.4-10.3
c.6-1.8 1.8-3.2 3.4-4.1
l2.6-1.4
c6.8-3.7 8.3-12.8 2.9-18.4
l-1.6-1.8
Z
m-54.1 68.4
c-21.3 22.3-51.4 35.1-82.5 35.1-26.6 0-52.5-9.3-72.8-26.3-1.2-1-1.9-2.4-1.9-3.9
s.5-3 1.6-4.1
l32.5-32.5
c.5-.5.6-1.2.6-1.5 0-.3-.1-.9-.6-1.5
L88.1 173
c-2.1-2.1-2.1-5.6 0-7.7 2.1-2.1 5.6-2.1 7.7 0
l12.9 12.9
c2.4 2.5 3.8 5.7 3.8 9.2 0 3.5-1.3 6.7-3.8 9.2
l-28.2 28.1
c41.6 30.8 99.8 25.8 135.7-11.7 18.3-19.1 28.4-44.4 28.4-71.1 0-26.7-10-52-28.3-71.2-19.3-20.3-45.4-31.7-73.4-32-27.9-.3-54.3 10.4-74.1 30.2
C40.2 97.5 31 140.2 45.2 178
L73 150.2
c9.8-9.8 21.2-12.9 31.2-15.6 8.4-2.3 16.2-4.4 22.8-10.1 7-6 12.9-10.8 18.2-15.1
l.1-.1
c4.4-3.6 8.6-7 12.9-10.7.2-.1.2-.2.3-.3 0-.1.1-.2.1-.4
v-.1
c.5-2.3 1.3-4.7 4.7-7.9
l.2-.2 3.9-3.4
c5-4.2 12.5-3.9 17.1.7
l11.8 11.8
c4.6 4.6 4.9 12.2.7 17.1
l-3.4 3.9
c-.1.1-.1.2-.2.2-3.2 3.4-5.7 4.1-8 4.7-.2.1-.4.1-.5.1
l-.3.3
c-3.7 4.3-7.1 8.5-10.7 13
l-.2.2
c-4.2 5.2-9.1 11.1-15 18.1-5.7 6.6-7.8 14.5-10.1 22.9-2.7 10-5.8 21.4-15.6 31.2
l-13.8 13.8
c-1 1-2.4 1.6-3.8 1.6-1.5 0-2.8-.6-3.8-1.6s-1.6-2.4-1.6-3.9.6-2.8 1.6-3.9
l13.8-13.8
c7.8-7.8 10.2-16.8 12.8-26.3 2.5-9.1 5.1-18.6 12.3-27.1 5.9-6.9 10.5-12.5 14.9-17.9 3.7-4.5 7.2-8.8 11-13.3 2.4-2.8 4.6-3.5 6.6-3.9.9-.2 1.3-.3 2.4-1.5
l3.3-3.8
c.6-.7.5-1.7-.1-2.3
L177 94.8
c-.6-.6-1.7-.7-2.3-.1
l-3.8 3.3
c-1.2 1.1-1.3 1.5-1.5 2.4-.5 2-1.2 4.2-3.9 6.6-4.4 3.8-8.7 7.2-13.2 10.9-5.5 4.5-11.1 9.1-18 14.9-8.5 7.3-17.9 9.8-27.1 12.3-9.6 2.6-18.6 5.1-26.3 12.8
l-33.5 33.5
c-1.2 1.2-2.8 1.8-4.4 1.6-1.9-.2-3.6-1.4-4.4-3.1-20.1-43.3-11-95 22.7-128.7 21.5-21.5 50.1-33.4 80.5-33.4
h1.4
c30.9.4 59.8 12.9 81.1 35.4 20.2 21.2 31.3 49.2 31.3 78.7 0 29.6-11.2 57.5-31.5 78.6" style="fill:#900;fill-rule:evenodd"/>
    </g>
</defs>
<use x="0" y="0" href="#korken" style="fill:#0f6"/>
</svg>